# xmcd CD database file
#
# Track frame offsets:
#	150
#	22043
#	45825
#	66831
#	96506
#	130604
#	152535
#	182031
#	205456
#	221565
#
# Disc length: 3210 seconds
#
# Revision: 0
# Processed by: cddbd v1.5.2PL0 Copyright (c) Steve Scherf et al.
# Submitted via: CDex 1.70beta2
#
DISCID=880c880a
DTITLE=Kengo Nakamura - Generations
DYEAR=2008
DGENRE=Jazz
TTITLE0=Mingus Figures
TTITLE1=The Single Petal of a Rose
TTITLE2=The Shepherd
TTITLE3=Generations
TTITLE4=Ellis Island
TTITLE5=Reincarnation of a Lovebird
TTITLE6=Julian's Shuffle
TTITLE7=Eternal Landscape
TTITLE8=Chase The Chaser
TTITLE9=Just Squeeze Me
EXTD=YEAR: 2008
EXTT0=
EXTT1=
EXTT2=
EXTT3=
EXTT4=
EXTT5=
EXTT6=
EXTT7=
EXTT8=
EXTT9=
PLAYORDER=
